<svg width="2048" height="1024" viewBox="0 0 2048 1024" fill="none" xmlns="http://www.w3.org/2000/svg">
<path d="M345 389.6C371.8 389.6 395.8 396 417 408.8C438.2 421.6 454.8 439.4 466.8 462.2C478.8 485 484.8 511 484.8 540.2C484.8 569 478.8 594.8 466.8 617.6C455.2 640 438.8 657.6 417.6 670.4C396.8 683.2 373 689.6 346.2 689.6C325.8 689.6 307 685.2 289.8 676.4C273 667.2 258.8 654.4 247.2 638V800H206.4V399.2H247.2V440.6C258.8 424.6 273 412.2 289.8 403.4C306.6 394.2 325 389.6 345 389.6ZM346.2 652.4C365 652.4 381.8 647.6 396.6 638C411.4 628.4 423 615.2 431.4 598.4C439.8 581.2 444 561.8 444 540.2C444 518.2 439.8 498.6 431.4 481.4C423 464.2 411.4 450.8 396.6 441.2C381.8 431.6 365 426.8 346.2 426.8C327 426.8 309.8 431.6 294.6 441.2C279.8 450.8 268.2 464.2 259.8 481.4C251.4 498.6 247.2 518 247.2 539.6C247.2 561.2 251.4 580.6 259.8 597.8C268.2 615 279.8 628.4 294.6 638C309.8 647.6 327 652.4 346.2 652.4ZM670.528 389.6C697.328 389.6 721.128 396 741.928 408.8C763.128 421.6 779.528 439.4 791.128 462.2C803.128 484.6 809.128 510.2 809.128 539C809.128 568.2 803.128 594.2 791.128 617C779.128 639.8 762.528 657.6 741.328 670.4C720.128 683.2 696.128 689.6 669.328 689.6C649.328 689.6 630.928 685.2 614.128 676.4C597.328 667.2 583.128 654.6 571.528 638.6V680H530.728V244.4H571.528V441.2C583.128 424.8 597.328 412.2 614.128 403.4C631.328 394.2 650.128 389.6 670.528 389.6ZM670.528 652.4C689.328 652.4 706.128 647.6 720.928 638C735.728 628.4 747.328 615 755.728 597.8C764.128 580.6 768.328 561 768.328 539C768.328 517.4 764.128 498.2 755.728 481.4C747.328 464.2 735.728 450.8 720.928 441.2C706.128 431.6 689.328 426.8 670.528 426.8C651.328 426.8 634.128 431.6 618.928 441.2C604.128 450.8 592.528 464.2 584.128 481.4C575.728 498.6 571.528 518 571.528 539.6C571.528 561.2 575.728 580.6 584.128 597.8C592.528 615 604.128 628.4 618.928 638C634.128 647.6 651.328 652.4 670.528 652.4ZM976.256 689.6C949.056 689.6 924.856 683.2 903.656 670.4C882.456 657.6 865.856 639.8 853.856 617C841.856 594.2 835.856 568.4 835.856 539.6C835.856 510.8 841.656 485 853.256 462.2C865.256 439.4 881.856 421.6 903.056 408.8C924.256 396 948.256 389.6 975.056 389.6C997.856 389.6 1017.66 394.6 1034.46 404.6C1051.66 414.2 1067.26 428 1081.26 446L1051.26 469.4C1031.66 441 1006.26 426.8 975.056 426.8C956.256 426.8 939.256 431.6 924.056 441.2C909.256 450.8 897.656 464.2 889.256 481.4C880.856 498.6 876.656 518 876.656 539.6C876.656 561.2 880.856 580.6 889.256 597.8C897.656 615 909.256 628.4 924.056 638C939.256 647.6 956.256 652.4 975.056 652.4C994.256 652.4 1010.06 649.2 1022.46 642.8C1034.86 636 1046.06 626.2 1056.06 613.4L1087.86 635.6C1074.66 652 1058.26 665.2 1038.66 675.2C1019.46 684.8 998.656 689.6 976.256 689.6ZM1427.19 389.6C1453.19 389.6 1474.79 398.8 1491.99 417.2C1509.19 435.2 1517.79 460.2 1517.79 492.2V680H1476.99V510.2C1476.99 480.6 1471.39 459.4 1460.19 446.6C1448.99 433.4 1434.39 426.8 1416.39 426.8C1394.39 426.8 1377.19 435.4 1364.79 452.6C1352.79 469.4 1345.79 492.4 1343.79 521.6V680H1302.99V510.2C1302.99 480.6 1297.39 459.4 1286.19 446.6C1274.99 433.4 1260.39 426.8 1242.39 426.8C1217.99 426.8 1199.59 437 1187.19 457.4C1175.19 477.8 1169.19 505.2 1169.19 539.6V680H1128.39V399.2H1169.19V443C1178.39 425.8 1189.99 412.6 1203.99 403.4C1218.39 394.2 1234.79 389.6 1253.19 389.6C1273.59 389.6 1291.39 395.2 1306.59 406.4C1321.79 417.2 1332.39 432.8 1338.39 453.2C1347.19 433.2 1359.19 417.6 1374.39 406.4C1389.59 395.2 1407.19 389.6 1427.19 389.6ZM1677.11 689.6C1649.91 689.6 1625.91 683.8 1605.11 672.2C1584.71 660.6 1569.11 644.2 1558.31 623L1594.91 605C1609.71 636.6 1638.71 652.4 1681.91 652.4C1702.71 652.4 1719.91 648.6 1733.51 641C1747.11 633.4 1753.91 621.6 1753.91 605.6C1753.91 589.2 1748.31 577 1737.11 569C1726.31 561 1707.11 555.8 1679.51 553.4C1641.11 550.2 1613.51 541.6 1596.71 527.6C1580.31 513.6 1572.11 495 1572.11 471.8C1572.11 445.8 1581.51 425.6 1600.31 411.2C1619.11 396.8 1644.91 389.6 1677.71 389.6C1733.31 389.6 1771.11 411.6 1791.11 455.6L1754.51 473.6C1747.71 457.6 1737.71 445.8 1724.51 438.2C1711.71 430.6 1695.11 426.8 1674.71 426.8C1653.91 426.8 1637.91 430.6 1626.71 438.2C1615.91 445.8 1610.51 456.6 1610.51 470.6C1610.51 483.8 1616.31 494.6 1627.91 503C1639.91 511 1660.31 516.2 1689.11 518.6C1724.71 521.8 1751.11 530.6 1768.31 545C1785.91 559 1794.71 577.6 1794.71 600.8C1794.71 619.6 1789.31 635.8 1778.51 649.4C1767.71 662.6 1753.31 672.6 1735.31 679.4C1717.31 686.2 1697.91 689.6 1677.11 689.6Z" fill="white"/>
<path d="M466.8 462.2L474.764 458.008L474.764 458.008L466.8 462.2ZM466.8 617.6L458.836 613.408L458.822 613.435L458.808 613.461L466.8 617.6ZM417.6 670.4L412.948 662.695L412.916 662.715L412.883 662.735L417.6 670.4ZM289.8 676.4L285.477 684.294L285.588 684.355L285.701 684.412L289.8 676.4ZM247.2 638L254.548 632.803L238.2 609.691V638H247.2ZM247.2 800V809H256.2V800H247.2ZM206.4 800H197.4V809H206.4V800ZM206.4 399.2V390.2H197.4V399.2H206.4ZM247.2 399.2H256.2V390.2H247.2V399.2ZM247.2 440.6H238.2V468.347L254.486 445.883L247.2 440.6ZM289.8 403.4L293.976 411.372L294.05 411.334L294.123 411.294L289.8 403.4ZM396.6 638L401.498 645.551L401.498 645.551L396.6 638ZM431.4 598.4L439.45 602.425L439.469 602.387L439.487 602.35L431.4 598.4ZM431.4 481.4L439.487 477.45L439.487 477.45L431.4 481.4ZM396.6 441.2L401.498 433.649L401.498 433.649L396.6 441.2ZM294.6 441.2L289.794 433.591L289.748 433.62L289.702 433.649L294.6 441.2ZM259.8 481.4L267.887 485.35L259.8 481.4ZM259.8 597.8L267.887 593.85L267.887 593.85L259.8 597.8ZM294.6 638L289.702 645.551L289.748 645.58L289.794 645.609L294.6 638ZM345 398.6C370.3 398.6 392.667 404.621 412.348 416.505L421.652 401.095C398.933 387.379 373.3 380.6 345 380.6V398.6ZM412.348 416.505C432.086 428.422 447.567 444.981 458.836 466.392L474.764 458.008C462.033 433.819 444.314 414.778 421.652 401.095L412.348 416.505ZM458.836 466.392C470.069 487.736 475.8 512.264 475.8 540.2H493.8C493.8 509.736 487.531 482.264 474.764 458.008L458.836 466.392ZM475.8 540.2C475.8 567.714 470.079 592.047 458.836 613.408L474.764 621.792C487.521 597.553 493.8 570.286 493.8 540.2H475.8ZM458.808 613.461C447.956 634.416 432.7 650.77 412.948 662.695L422.252 678.105C444.9 664.43 462.444 645.584 474.792 621.739L458.808 613.461ZM412.883 662.735C393.638 674.578 371.502 680.6 346.2 680.6V698.6C374.498 698.6 399.962 691.822 422.317 678.065L412.883 662.735ZM346.2 680.6C327.143 680.6 309.759 676.502 293.899 668.388L285.701 684.412C304.241 693.898 324.457 698.6 346.2 698.6V680.6ZM294.123 668.506C278.582 659.996 265.397 648.142 254.548 632.803L239.852 643.197C252.203 660.658 267.418 674.404 285.477 684.294L294.123 668.506ZM238.2 638V800H256.2V638H238.2ZM247.2 791H206.4V809H247.2V791ZM215.4 800V399.2H197.4V800H215.4ZM206.4 408.2H247.2V390.2H206.4V408.2ZM238.2 399.2V440.6H256.2V399.2H238.2ZM254.486 445.883C265.306 430.959 278.459 419.501 293.976 411.372L285.624 395.428C267.541 404.899 252.294 418.241 239.914 435.317L254.486 445.883ZM294.123 411.294C309.538 402.852 326.442 398.6 345 398.6V380.6C323.558 380.6 303.662 385.548 285.477 395.506L294.123 411.294ZM346.2 661.4C366.619 661.4 385.142 656.16 401.498 645.551L391.702 630.449C378.458 639.04 363.381 643.4 346.2 643.4V661.4ZM401.498 645.551C417.732 635.021 430.38 620.564 439.45 602.425L423.35 594.375C415.62 609.836 405.068 621.779 391.702 630.449L401.498 645.551ZM439.487 602.35C448.561 583.77 453 562.992 453 540.2H435C435 560.608 431.039 578.63 423.313 594.45L439.487 602.35ZM453 540.2C453 517.036 448.572 496.052 439.487 477.45L423.313 485.349C431.028 501.148 435 519.364 435 540.2H453ZM439.487 477.45C430.434 458.912 417.784 444.213 401.498 433.649L391.702 448.751C405.016 457.387 415.567 469.488 423.313 485.35L439.487 477.45ZM401.498 433.649C385.142 423.04 366.619 417.8 346.2 417.8V435.8C363.381 435.8 378.458 440.16 391.702 448.751L401.498 433.649ZM346.2 417.8C325.42 417.8 306.531 423.02 289.794 433.591L299.406 448.809C313.069 440.18 328.58 435.8 346.2 435.8V417.8ZM289.702 433.649C273.416 444.213 260.767 458.912 251.713 477.45L267.887 485.35C275.634 469.488 286.184 457.387 299.498 448.751L289.702 433.649ZM251.713 477.45C242.639 496.03 238.2 516.808 238.2 539.6H256.2C256.2 519.192 260.161 501.17 267.887 485.35L251.713 477.45ZM238.2 539.6C238.2 562.392 242.639 583.17 251.713 601.75L267.887 593.85C260.161 578.03 256.2 560.008 256.2 539.6H238.2ZM251.713 601.75C260.767 620.288 273.416 634.987 289.702 645.551L299.498 630.449C286.184 621.813 275.634 609.712 267.887 593.85L251.713 601.75ZM289.794 645.609C306.531 656.18 325.42 661.4 346.2 661.4V643.4C328.58 643.4 313.069 639.02 299.406 630.391L289.794 645.609ZM741.928 408.8L737.211 416.465L737.244 416.485L737.276 416.505L741.928 408.8ZM791.128 462.2L783.107 466.281L783.15 466.366L783.195 466.45L791.128 462.2ZM791.128 617L799.092 621.192L799.092 621.192L791.128 617ZM741.328 670.4L736.676 662.695L741.328 670.4ZM614.128 676.4L609.805 684.294L609.878 684.334L609.952 684.372L614.128 676.4ZM571.528 638.6L578.815 633.317L562.528 610.853V638.6H571.528ZM571.528 680V689H580.528V680H571.528ZM530.728 680H521.728V689H530.728V680ZM530.728 244.4V235.4H521.728V244.4H530.728ZM571.528 244.4H580.528V235.4H571.528V244.4ZM571.528 441.2H562.528V469.509L578.876 446.397L571.528 441.2ZM614.128 403.4L618.304 411.372L618.339 411.354L618.373 411.336L614.128 403.4ZM720.928 638L725.826 645.551L725.826 645.551L720.928 638ZM755.728 597.8L747.641 593.85L747.641 593.85L755.728 597.8ZM755.728 481.4L747.641 485.35L747.659 485.387L747.678 485.425L755.728 481.4ZM720.928 441.2L725.826 433.649L725.826 433.649L720.928 441.2ZM618.928 441.2L614.122 433.591L614.076 433.62L614.03 433.649L618.928 441.2ZM584.128 481.4L592.215 485.35L584.128 481.4ZM584.128 597.8L592.215 593.85L592.215 593.85L584.128 597.8ZM618.928 638L614.03 645.551L614.076 645.58L614.122 645.609L618.928 638ZM670.528 398.6C695.83 398.6 717.966 404.622 737.211 416.465L746.645 401.135C724.29 387.378 698.826 380.6 670.528 380.6V398.6ZM737.276 416.505C756.987 428.406 772.243 444.928 783.107 466.281L799.15 458.119C786.813 433.872 769.269 414.794 746.58 401.095L737.276 416.505ZM783.195 466.45C794.406 487.377 800.128 511.483 800.128 539H818.128C818.128 508.917 811.85 481.823 799.061 457.95L783.195 466.45ZM800.128 539C800.128 566.936 794.397 591.464 783.164 612.808L799.092 621.192C811.859 596.936 818.128 569.464 818.128 539H800.128ZM783.164 612.808C771.895 634.219 756.415 650.778 736.676 662.695L745.98 678.105C768.642 664.422 786.361 645.381 799.092 621.192L783.164 612.808ZM736.676 662.695C716.995 674.579 694.628 680.6 669.328 680.6V698.6C697.628 698.6 723.261 691.821 745.98 678.105L736.676 662.695ZM669.328 680.6C650.701 680.6 633.745 676.516 618.304 668.428L609.952 684.372C628.111 693.884 647.955 698.6 669.328 698.6V680.6ZM618.451 668.506C602.858 659.967 589.658 648.273 578.815 633.317L564.242 643.883C576.598 660.927 591.799 674.433 609.805 684.294L618.451 668.506ZM562.528 638.6V680H580.528V638.6H562.528ZM571.528 671H530.728V689H571.528V671ZM539.728 680V244.4H521.728V680H539.728ZM530.728 253.4H571.528V235.4H530.728V253.4ZM562.528 244.4V441.2H580.528V244.4H562.528ZM578.876 446.397C589.703 431.089 602.841 419.472 618.304 411.372L609.952 395.428C591.815 404.928 576.553 418.51 564.18 436.003L578.876 446.397ZM618.373 411.336C634.207 402.867 651.539 398.6 670.528 398.6V380.6C648.717 380.6 628.45 385.533 609.883 395.464L618.373 411.336ZM670.528 661.4C690.947 661.4 709.47 656.16 725.826 645.551L716.03 630.449C702.786 639.04 687.71 643.4 670.528 643.4V661.4ZM725.826 645.551C742.112 634.987 754.762 620.288 763.815 601.75L747.641 593.85C739.895 609.712 729.344 621.813 716.03 630.449L725.826 645.551ZM763.815 601.75C772.9 583.148 777.328 562.164 777.328 539H759.328C759.328 559.836 755.357 578.052 747.641 593.85L763.815 601.75ZM777.328 539C777.328 516.213 772.89 495.6 763.778 477.375L747.678 485.425C755.366 500.8 759.328 518.587 759.328 539H777.328ZM763.815 477.45C754.762 458.912 742.112 444.213 725.826 433.649L716.03 448.751C729.344 457.387 739.895 469.488 747.641 485.35L763.815 477.45ZM725.826 433.649C709.47 423.04 690.947 417.8 670.528 417.8V435.8C687.71 435.8 702.786 440.16 716.03 448.751L725.826 433.649ZM670.528 417.8C649.748 417.8 630.859 423.02 614.122 433.591L623.734 448.809C637.397 440.18 652.909 435.8 670.528 435.8V417.8ZM614.03 433.649C597.744 444.213 585.095 458.912 576.041 477.45L592.215 485.35C599.962 469.488 610.512 457.387 623.826 448.751L614.03 433.649ZM576.041 477.45C566.967 496.03 562.528 516.808 562.528 539.6H580.528C580.528 519.192 584.489 501.17 592.215 485.35L576.041 477.45ZM562.528 539.6C562.528 562.392 566.967 583.17 576.041 601.75L592.215 593.85C584.489 578.03 580.528 560.008 580.528 539.6H562.528ZM576.041 601.75C585.095 620.288 597.744 634.987 614.03 645.551L623.826 630.449C610.512 621.813 599.962 609.712 592.215 593.85L576.041 601.75ZM614.122 645.609C630.859 656.18 649.748 661.4 670.528 661.4V643.4C652.909 643.4 637.397 639.02 623.734 630.391L614.122 645.609ZM903.656 670.4L908.308 662.695L903.656 670.4ZM853.856 617L861.821 612.808L853.856 617ZM853.256 462.2L845.292 458.008L845.263 458.063L845.235 458.119L853.256 462.2ZM1034.46 404.6L1029.85 412.334L1029.96 412.398L1030.07 412.459L1034.46 404.6ZM1081.26 446L1086.79 453.097L1093.88 447.569L1088.36 440.475L1081.26 446ZM1051.26 469.4L1043.85 474.512L1049.27 482.365L1056.79 476.497L1051.26 469.4ZM924.056 441.2L919.25 433.591L919.204 433.62L919.159 433.649L924.056 441.2ZM889.256 481.4L881.169 477.45L881.169 477.45L889.256 481.4ZM889.256 597.8L897.343 593.85L897.343 593.85L889.256 597.8ZM924.056 638L919.159 645.551L919.204 645.58L919.25 645.609L924.056 638ZM1022.46 642.8L1026.58 650.798L1026.68 650.746L1026.78 650.691L1022.46 642.8ZM1056.06 613.4L1061.21 606.02L1054.21 601.138L1048.96 607.859L1056.06 613.4ZM1087.86 635.6L1094.87 641.243L1100.91 633.736L1093.01 628.22L1087.86 635.6ZM1038.66 675.2L1042.68 683.25L1042.71 683.233L1042.75 683.217L1038.66 675.2ZM976.256 680.6C950.53 680.6 927.969 674.566 908.308 662.695L899.004 678.105C921.744 691.834 947.583 698.6 976.256 698.6V680.6ZM908.308 662.695C888.57 650.778 873.089 634.219 861.821 612.808L845.892 621.192C858.623 645.381 876.343 664.422 899.004 678.105L908.308 662.695ZM861.821 612.808C850.578 591.447 844.856 567.114 844.856 539.6H826.856C826.856 569.686 833.135 596.953 845.892 621.192L861.821 612.808ZM844.856 539.6C844.856 512.038 850.398 487.665 861.278 466.281L845.235 458.119C832.914 482.335 826.856 509.562 826.856 539.6H844.856ZM861.221 466.392C872.489 444.981 887.97 428.422 907.708 416.505L898.404 401.095C875.743 414.778 858.023 433.819 845.292 458.008L861.221 466.392ZM907.708 416.505C927.39 404.621 949.756 398.6 975.056 398.6V380.6C946.756 380.6 921.123 387.379 898.404 401.095L907.708 416.505ZM975.056 398.6C996.508 398.6 1014.66 403.292 1029.85 412.334L1039.06 396.866C1020.65 385.908 999.204 380.6 975.056 380.6V398.6ZM1030.07 412.459C1046.06 421.386 1060.78 434.329 1074.15 451.525L1088.36 440.475C1073.74 421.671 1057.25 407.014 1038.84 396.741L1030.07 412.459ZM1075.72 438.903L1045.72 462.303L1056.79 476.497L1086.79 453.097L1075.72 438.903ZM1058.66 464.288C1037.59 433.755 1009.56 417.8 975.056 417.8V435.8C1002.95 435.8 1025.72 448.245 1043.85 474.512L1058.66 464.288ZM975.056 417.8C954.637 417.8 935.956 423.039 919.25 433.591L928.862 448.809C942.556 440.16 957.876 435.8 975.056 435.8V417.8ZM919.159 433.649C902.873 444.213 890.223 458.912 881.169 477.45L897.343 485.35C905.09 469.488 915.64 457.387 928.954 448.751L919.159 433.649ZM881.169 477.45C872.095 496.03 867.656 516.808 867.656 539.6H885.656C885.656 519.192 889.617 501.17 897.343 485.349L881.169 477.45ZM867.656 539.6C867.656 562.392 872.095 583.17 881.169 601.75L897.343 593.85C889.617 578.03 885.656 560.008 885.656 539.6H867.656ZM881.169 601.75C890.223 620.288 902.873 634.987 919.159 645.551L928.954 630.449C915.64 621.813 905.09 609.712 897.343 593.85L881.169 601.75ZM919.25 645.609C935.956 656.161 954.637 661.4 975.056 661.4V643.4C957.876 643.4 942.556 639.039 928.862 630.391L919.25 645.609ZM975.056 661.4C995.181 661.4 1012.52 658.057 1026.58 650.798L1018.33 634.802C1007.59 640.343 993.332 643.4 975.056 643.4V661.4ZM1026.78 650.691C1040.4 643.223 1052.51 632.562 1063.15 618.941L1048.96 607.859C1039.61 619.838 1029.31 628.777 1018.13 634.909L1026.78 650.691ZM1050.9 620.78L1082.7 642.98L1093.01 628.22L1061.21 606.02L1050.9 620.78ZM1080.85 629.957C1068.48 645.324 1053.09 657.733 1034.57 667.183L1042.75 683.217C1063.42 672.667 1080.84 658.676 1094.87 641.243L1080.85 629.957ZM1034.63 667.15C1016.74 676.098 997.322 680.6 976.256 680.6V698.6C999.991 698.6 1022.18 693.502 1042.68 683.25L1034.63 667.15ZM1491.99 417.2L1485.42 423.346L1485.45 423.382L1485.49 423.418L1491.99 417.2ZM1517.79 680V689H1526.79V680H1517.79ZM1476.99 680H1467.99V689H1476.99V680ZM1460.19 446.6L1453.33 452.423L1453.38 452.475L1453.42 452.527L1460.19 446.6ZM1364.79 452.6L1357.49 447.337L1357.48 447.353L1357.47 447.369L1364.79 452.6ZM1343.79 521.6L1334.81 520.985L1334.79 521.292V521.6H1343.79ZM1343.79 680V689H1352.79V680H1343.79ZM1302.99 680H1293.99V689H1302.99V680ZM1286.19 446.6L1279.33 452.423L1279.38 452.475L1279.42 452.527L1286.19 446.6ZM1187.19 457.4L1179.5 452.725L1179.47 452.781L1179.44 452.837L1187.19 457.4ZM1169.19 680V689H1178.19V680H1169.19ZM1128.39 680H1119.39V689H1128.39V680ZM1128.39 399.2V390.2H1119.39V399.2H1128.39ZM1169.19 399.2H1178.19V390.2H1169.19V399.2ZM1169.19 443H1160.19L1177.13 447.245L1169.19 443ZM1203.99 403.4L1199.15 395.816L1199.1 395.847L1199.05 395.879L1203.99 403.4ZM1306.59 406.4L1301.25 413.645L1301.32 413.692L1301.38 413.737L1306.59 406.4ZM1338.39 453.2L1329.76 455.739L1336.71 479.373L1346.63 456.825L1338.39 453.2ZM1374.39 406.4L1369.05 399.154L1369.05 399.154L1374.39 406.4ZM1427.19 398.6C1450.79 398.6 1469.98 406.832 1485.42 423.346L1498.57 411.054C1479.61 390.768 1455.6 380.6 1427.19 380.6V398.6ZM1485.49 423.418C1500.67 439.305 1508.79 461.829 1508.79 492.2H1526.79C1526.79 458.571 1517.72 431.095 1498.5 410.982L1485.49 423.418ZM1508.79 492.2V680H1526.79V492.2H1508.79ZM1517.79 671H1476.99V689H1517.79V671ZM1485.99 680V510.2H1467.99V680H1485.99ZM1485.99 510.2C1485.99 479.889 1480.34 455.957 1466.97 440.673L1453.42 452.527C1462.45 462.843 1467.99 481.311 1467.99 510.2H1485.99ZM1467.06 440.777C1454.07 425.472 1436.92 417.8 1416.39 417.8V435.8C1431.87 435.8 1443.92 441.328 1453.33 452.423L1467.06 440.777ZM1416.39 417.8C1391.63 417.8 1371.66 427.688 1357.49 447.337L1372.09 457.863C1382.73 443.112 1397.16 435.8 1416.39 435.8V417.8ZM1357.47 447.369C1344.18 465.978 1336.88 490.783 1334.81 520.985L1352.77 522.215C1354.7 494.017 1361.41 472.822 1372.12 457.831L1357.47 447.369ZM1334.79 521.6V680H1352.79V521.6H1334.79ZM1343.79 671H1302.99V689H1343.79V671ZM1311.99 680V510.2H1293.99V680H1311.99ZM1311.99 510.2C1311.99 479.889 1306.34 455.957 1292.97 440.673L1279.42 452.527C1288.45 462.843 1293.99 481.311 1293.99 510.2H1311.99ZM1293.06 440.777C1280.07 425.472 1262.92 417.8 1242.39 417.8V435.8C1257.87 435.8 1269.92 441.328 1279.33 452.423L1293.06 440.777ZM1242.39 417.8C1214.94 417.8 1193.58 429.568 1179.5 452.725L1194.88 462.075C1205.61 444.432 1221.05 435.8 1242.39 435.8V417.8ZM1179.44 452.837C1166.34 475.109 1160.19 504.278 1160.19 539.6H1178.19C1178.19 506.122 1184.05 480.491 1194.95 461.963L1179.44 452.837ZM1160.19 539.6V680H1178.19V539.6H1160.19ZM1169.19 671H1128.39V689H1169.19V671ZM1137.39 680V399.2H1119.39V680H1137.39ZM1128.39 408.2H1169.19V390.2H1128.39V408.2ZM1160.19 399.2V443H1178.19V399.2H1160.19ZM1177.13 447.245C1185.74 431.151 1196.38 419.17 1208.94 410.921L1199.05 395.879C1183.6 406.03 1171.05 420.449 1161.26 438.755L1177.13 447.245ZM1208.84 410.984C1221.68 402.78 1236.37 398.6 1253.19 398.6V380.6C1233.21 380.6 1215.11 385.62 1199.15 395.816L1208.84 410.984ZM1253.19 398.6C1271.84 398.6 1287.73 403.679 1301.25 413.645L1311.93 399.154C1295.06 386.721 1275.35 380.6 1253.19 380.6V398.6ZM1301.38 413.737C1314.71 423.205 1324.25 436.991 1329.76 455.739L1347.03 450.66C1340.54 428.609 1328.88 411.195 1311.81 399.063L1301.38 413.737ZM1346.63 456.825C1354.9 438.035 1365.99 423.775 1379.73 413.645L1369.05 399.154C1352.4 411.425 1339.49 428.365 1330.16 449.575L1346.63 456.825ZM1379.73 413.645C1393.29 403.655 1408.99 398.6 1427.19 398.6V380.6C1405.39 380.6 1385.9 386.745 1369.05 399.154L1379.73 413.645ZM1605.11 672.2L1600.66 680.024L1600.7 680.042L1600.73 680.06L1605.11 672.2ZM1558.31 623L1554.34 614.924L1546.15 618.952L1550.29 627.085L1558.31 623ZM1594.91 605L1603.06 601.183L1599.17 592.876L1590.94 596.924L1594.91 605ZM1733.51 641L1737.9 648.856L1737.9 648.856L1733.51 641ZM1737.11 569L1731.76 576.232L1731.82 576.278L1731.88 576.324L1737.11 569ZM1679.51 553.4L1680.29 544.434L1680.28 544.432L1680.26 544.431L1679.51 553.4ZM1596.71 527.6L1590.87 534.445L1590.91 534.48L1590.95 534.514L1596.71 527.6ZM1600.31 411.2L1605.79 418.345L1605.79 418.345L1600.31 411.2ZM1791.11 455.6L1795.08 463.676L1802.92 459.823L1799.31 451.876L1791.11 455.6ZM1754.51 473.6L1746.23 477.12L1749.95 485.874L1758.48 481.676L1754.51 473.6ZM1724.51 438.2L1719.92 445.939L1719.97 445.969L1720.02 446L1724.51 438.2ZM1626.71 438.2L1621.66 430.753L1621.6 430.796L1621.53 430.84L1626.71 438.2ZM1627.91 503L1622.63 510.289L1622.78 510.392L1622.92 510.488L1627.91 503ZM1689.11 518.6L1689.92 509.636L1689.89 509.634L1689.86 509.631L1689.11 518.6ZM1768.31 545L1762.54 551.901L1762.62 551.973L1762.71 552.043L1768.31 545ZM1778.51 649.4L1785.48 655.099L1785.52 655.048L1785.56 654.997L1778.51 649.4ZM1735.31 679.4L1738.49 687.819L1738.49 687.819L1735.31 679.4ZM1677.11 680.6C1651.23 680.6 1628.78 675.092 1609.5 664.34L1600.73 680.06C1623.05 692.508 1648.6 698.6 1677.11 698.6V680.6ZM1609.56 664.376C1590.71 653.659 1576.34 638.569 1566.33 618.915L1550.29 627.085C1561.88 649.831 1578.71 667.541 1600.66 680.024L1609.56 664.376ZM1562.28 631.076L1598.88 613.076L1590.94 596.924L1554.34 614.924L1562.28 631.076ZM1586.76 608.817C1594.93 626.249 1607.17 639.582 1623.46 648.453C1639.62 657.261 1659.26 661.4 1681.91 661.4V643.4C1661.37 643.4 1644.9 639.639 1632.07 632.647C1619.35 625.718 1609.7 615.351 1603.06 601.183L1586.76 608.817ZM1681.91 661.4C1703.75 661.4 1722.59 657.416 1737.9 648.856L1729.12 633.144C1717.24 639.784 1701.67 643.4 1681.91 643.4V661.4ZM1737.9 648.856C1745.91 644.38 1752.29 638.445 1756.61 630.944C1760.93 623.455 1762.91 614.9 1762.91 605.6H1744.91C1744.91 612.3 1743.5 617.645 1741.01 621.956C1738.54 626.255 1734.71 630.02 1729.12 633.144L1737.9 648.856ZM1762.91 605.6C1762.91 586.926 1756.38 571.703 1742.34 561.676L1731.88 576.324C1740.24 582.297 1744.91 591.474 1744.91 605.6H1762.91ZM1742.47 561.768C1729.53 552.18 1708.13 546.854 1680.29 544.434L1678.73 562.366C1706.1 564.746 1723.1 569.82 1731.76 576.232L1742.47 561.768ZM1680.26 544.431C1642.46 541.281 1617.13 532.899 1602.47 520.686L1590.95 534.514C1609.89 550.301 1639.76 559.118 1678.77 562.369L1680.26 544.431ZM1602.56 520.755C1588.33 508.607 1581.11 492.593 1581.11 471.8H1563.11C1563.11 497.407 1572.3 518.593 1590.87 534.445L1602.56 520.755ZM1581.11 471.8C1581.11 448.285 1589.45 430.859 1605.79 418.345L1594.84 404.055C1573.58 420.341 1563.11 443.315 1563.11 471.8H1581.11ZM1605.79 418.345C1622.51 405.535 1646.14 398.6 1677.71 398.6V380.6C1643.68 380.6 1615.72 388.065 1594.84 404.055L1605.79 418.345ZM1677.71 398.6C1704.35 398.6 1726.04 403.868 1743.24 413.878C1760.35 423.842 1773.61 438.836 1782.92 459.324L1799.31 451.876C1788.62 428.364 1772.97 410.358 1752.29 398.322C1731.69 386.332 1706.68 380.6 1677.71 380.6V398.6ZM1787.14 447.524L1750.54 465.524L1758.48 481.676L1795.08 463.676L1787.14 447.524ZM1762.8 470.08C1755.34 452.545 1744.13 439.112 1729 430.4L1720.02 446C1731.29 452.488 1740.08 462.655 1746.23 477.12L1762.8 470.08ZM1729.11 430.461C1714.49 421.785 1696.15 417.8 1674.71 417.8V435.8C1694.07 435.8 1708.93 439.415 1719.92 445.939L1729.11 430.461ZM1674.71 417.8C1653.01 417.8 1634.95 421.732 1621.66 430.753L1631.77 445.647C1640.87 439.468 1654.81 435.8 1674.71 435.8V417.8ZM1621.53 430.84C1608.17 440.241 1601.51 453.879 1601.51 470.6H1619.51C1619.51 459.321 1623.65 451.359 1631.89 445.56L1621.53 430.84ZM1601.51 470.6C1601.51 486.961 1608.93 500.365 1622.63 510.289L1633.19 495.711C1623.7 488.835 1619.51 480.639 1619.51 470.6H1601.51ZM1622.92 510.488C1636.92 519.825 1659.29 525.146 1688.37 527.569L1689.86 509.631C1661.34 507.254 1642.9 502.175 1632.9 495.512L1622.92 510.488ZM1688.31 527.564C1723.08 530.689 1747.35 539.191 1762.54 551.901L1774.09 538.099C1754.87 522.009 1726.35 512.911 1689.92 509.636L1688.31 527.564ZM1762.71 552.043C1778.09 564.274 1785.71 580.242 1785.71 600.8H1803.71C1803.71 574.958 1793.74 553.726 1773.92 537.957L1762.71 552.043ZM1785.71 600.8C1785.71 617.747 1780.89 631.93 1771.46 643.803L1785.56 654.997C1797.73 639.67 1803.71 621.453 1803.71 600.8H1785.71ZM1771.55 643.701C1761.87 655.527 1748.85 664.666 1732.13 670.981L1738.49 687.819C1757.78 680.534 1773.55 669.673 1785.48 655.099L1771.55 643.701ZM1732.13 670.981C1715.23 677.367 1696.91 680.6 1677.11 680.6V698.6C1698.91 698.6 1719.4 695.033 1738.49 687.819L1732.13 670.981Z" fill="white"/>
<path d="M1879.6 684.8C1870.8 684.8 1863.2 681.6 1856.8 675.2C1850.8 668.8 1847.8 661 1847.8 651.8C1847.8 643 1850.8 635.4 1856.8 629C1863.2 622.6 1870.8 619.4 1879.6 619.4C1888.8 619.4 1896.6 622.6 1903 629C1909.4 635.4 1912.6 643.2 1912.6 652.4C1912.6 661.2 1909.4 668.8 1903 675.2C1896.6 681.6 1888.8 684.8 1879.6 684.8Z" fill="#4492EB"/>
</svg>
