<svg width="1024" height="1024" viewBox="0 0 1024 1024" fill="none" xmlns="http://www.w3.org/2000/svg">
<path d="M345 374.6C371.8 374.6 395.8 381 417 393.8C438.2 406.6 454.8 424.4 466.8 447.2C478.8 470 484.8 496 484.8 525.2C484.8 554 478.8 579.8 466.8 602.6C455.2 625 438.8 642.6 417.6 655.4C396.8 668.2 373 674.6 346.2 674.6C325.8 674.6 307 670.2 289.8 661.4C273 652.2 258.8 639.4 247.2 623V785H206.4V384.2H247.2V425.6C258.8 409.6 273 397.2 289.8 388.4C306.6 379.2 325 374.6 345 374.6ZM346.2 637.4C365 637.4 381.8 632.6 396.6 623C411.4 613.4 423 600.2 431.4 583.4C439.8 566.2 444 546.8 444 525.2C444 503.2 439.8 483.6 431.4 466.4C423 449.2 411.4 435.8 396.6 426.2C381.8 416.6 365 411.8 346.2 411.8C327 411.8 309.8 416.6 294.6 426.2C279.8 435.8 268.2 449.2 259.8 466.4C251.4 483.6 247.2 503 247.2 524.6C247.2 546.2 251.4 565.6 259.8 582.8C268.2 600 279.8 613.4 294.6 623C309.8 632.6 327 637.4 346.2 637.4ZM670.528 374.6C697.328 374.6 721.128 381 741.928 393.8C763.128 406.6 779.528 424.4 791.128 447.2C803.128 469.6 809.128 495.2 809.128 524C809.128 553.2 803.128 579.2 791.128 602C779.128 624.8 762.528 642.6 741.328 655.4C720.128 668.2 696.128 674.6 669.328 674.6C649.328 674.6 630.928 670.2 614.128 661.4C597.328 652.2 583.128 639.6 571.528 623.6V665H530.728V229.4H571.528V426.2C583.128 409.8 597.328 397.2 614.128 388.4C631.328 379.2 650.128 374.6 670.528 374.6ZM670.528 637.4C689.328 637.4 706.128 632.6 720.928 623C735.728 613.4 747.328 600 755.728 582.8C764.128 565.6 768.328 546 768.328 524C768.328 502.4 764.128 483.2 755.728 466.4C747.328 449.2 735.728 435.8 720.928 426.2C706.128 416.6 689.328 411.8 670.528 411.8C651.328 411.8 634.128 416.6 618.928 426.2C604.128 435.8 592.528 449.2 584.128 466.4C575.728 483.6 571.528 503 571.528 524.6C571.528 546.2 575.728 565.6 584.128 582.8C592.528 600 604.128 613.4 618.928 623C634.128 632.6 651.328 637.4 670.528 637.4Z" fill="black"/>
<path d="M466.8 447.2L474.764 443.008L474.764 443.008L466.8 447.2ZM466.8 602.6L458.836 598.408L458.822 598.435L458.808 598.461L466.8 602.6ZM417.6 655.4L412.948 647.695L412.916 647.715L412.883 647.735L417.6 655.4ZM289.8 661.4L285.477 669.294L285.588 669.355L285.701 669.412L289.8 661.4ZM247.2 623L254.548 617.803L238.2 594.691V623H247.2ZM247.2 785V794H256.2V785H247.2ZM206.4 785H197.4V794H206.4V785ZM206.4 384.2V375.2H197.4V384.2H206.4ZM247.2 384.2H256.2V375.2H247.2V384.2ZM247.2 425.6H238.2V453.347L254.486 430.883L247.2 425.6ZM289.8 388.4L293.976 396.372L294.05 396.334L294.123 396.294L289.8 388.4ZM396.6 623L401.498 630.551L401.498 630.551L396.6 623ZM431.4 583.4L439.45 587.425L439.469 587.387L439.487 587.35L431.4 583.4ZM431.4 466.4L439.487 462.45L439.487 462.45L431.4 466.4ZM396.6 426.2L401.498 418.649L401.498 418.649L396.6 426.2ZM294.6 426.2L289.794 418.591L289.748 418.62L289.702 418.649L294.6 426.2ZM259.8 466.4L267.887 470.35L259.8 466.4ZM259.8 582.8L267.887 578.85L267.887 578.85L259.8 582.8ZM294.6 623L289.702 630.551L289.748 630.58L289.794 630.609L294.6 623ZM345 383.6C370.3 383.6 392.667 389.621 412.348 401.505L421.652 386.095C398.933 372.379 373.3 365.6 345 365.6V383.6ZM412.348 401.505C432.086 413.422 447.567 429.981 458.836 451.392L474.764 443.008C462.033 418.819 444.314 399.778 421.652 386.095L412.348 401.505ZM458.836 451.392C470.069 472.736 475.8 497.264 475.8 525.2H493.8C493.8 494.736 487.531 467.264 474.764 443.008L458.836 451.392ZM475.8 525.2C475.8 552.714 470.079 577.047 458.836 598.408L474.764 606.792C487.521 582.553 493.8 555.286 493.8 525.2H475.8ZM458.808 598.461C447.956 619.416 432.7 635.77 412.948 647.695L422.252 663.105C444.9 649.43 462.444 630.584 474.792 606.739L458.808 598.461ZM412.883 647.735C393.638 659.578 371.502 665.6 346.2 665.6V683.6C374.498 683.6 399.962 676.822 422.317 663.065L412.883 647.735ZM346.2 665.6C327.143 665.6 309.759 661.502 293.899 653.388L285.701 669.412C304.241 678.898 324.457 683.6 346.2 683.6V665.6ZM294.123 653.506C278.582 644.996 265.397 633.142 254.548 617.803L239.852 628.197C252.203 645.658 267.418 659.404 285.477 669.294L294.123 653.506ZM238.2 623V785H256.2V623H238.2ZM247.2 776H206.4V794H247.2V776ZM215.4 785V384.2H197.4V785H215.4ZM206.4 393.2H247.2V375.2H206.4V393.2ZM238.2 384.2V425.6H256.2V384.2H238.2ZM254.486 430.883C265.306 415.959 278.459 404.501 293.976 396.372L285.624 380.428C267.541 389.899 252.294 403.241 239.914 420.317L254.486 430.883ZM294.123 396.294C309.538 387.852 326.442 383.6 345 383.6V365.6C323.558 365.6 303.662 370.548 285.477 380.506L294.123 396.294ZM346.2 646.4C366.619 646.4 385.142 641.16 401.498 630.551L391.702 615.449C378.458 624.04 363.381 628.4 346.2 628.4V646.4ZM401.498 630.551C417.732 620.021 430.38 605.564 439.45 587.425L423.35 579.375C415.62 594.836 405.068 606.779 391.702 615.449L401.498 630.551ZM439.487 587.35C448.561 568.77 453 547.992 453 525.2H435C435 545.608 431.039 563.63 423.313 579.45L439.487 587.35ZM453 525.2C453 502.036 448.572 481.052 439.487 462.45L423.313 470.349C431.028 486.148 435 504.364 435 525.2H453ZM439.487 462.45C430.434 443.912 417.784 429.213 401.498 418.649L391.702 433.751C405.016 442.387 415.567 454.488 423.313 470.35L439.487 462.45ZM401.498 418.649C385.142 408.04 366.619 402.8 346.2 402.8V420.8C363.381 420.8 378.458 425.16 391.702 433.751L401.498 418.649ZM346.2 402.8C325.42 402.8 306.531 408.02 289.794 418.591L299.406 433.809C313.069 425.18 328.58 420.8 346.2 420.8V402.8ZM289.702 418.649C273.416 429.213 260.767 443.912 251.713 462.45L267.887 470.35C275.634 454.488 286.184 442.387 299.498 433.751L289.702 418.649ZM251.713 462.45C242.639 481.03 238.2 501.808 238.2 524.6H256.2C256.2 504.192 260.161 486.17 267.887 470.35L251.713 462.45ZM238.2 524.6C238.2 547.392 242.639 568.17 251.713 586.75L267.887 578.85C260.161 563.03 256.2 545.008 256.2 524.6H238.2ZM251.713 586.75C260.767 605.288 273.416 619.987 289.702 630.551L299.498 615.449C286.184 606.813 275.634 594.712 267.887 578.85L251.713 586.75ZM289.794 630.609C306.531 641.18 325.42 646.4 346.2 646.4V628.4C328.58 628.4 313.069 624.02 299.406 615.391L289.794 630.609ZM741.928 393.8L737.211 401.465L737.244 401.485L737.276 401.505L741.928 393.8ZM791.128 447.2L783.107 451.281L783.15 451.366L783.195 451.45L791.128 447.2ZM791.128 602L799.092 606.192L799.092 606.192L791.128 602ZM741.328 655.4L736.676 647.695L741.328 655.4ZM614.128 661.4L609.805 669.294L609.878 669.334L609.952 669.372L614.128 661.4ZM571.528 623.6L578.815 618.317L562.528 595.853V623.6H571.528ZM571.528 665V674H580.528V665H571.528ZM530.728 665H521.728V674H530.728V665ZM530.728 229.4V220.4H521.728V229.4H530.728ZM571.528 229.4H580.528V220.4H571.528V229.4ZM571.528 426.2H562.528V454.509L578.876 431.397L571.528 426.2ZM614.128 388.4L618.304 396.372L618.339 396.354L618.373 396.336L614.128 388.4ZM720.928 623L725.826 630.551L725.826 630.551L720.928 623ZM755.728 582.8L747.641 578.85L747.641 578.85L755.728 582.8ZM755.728 466.4L747.641 470.35L747.659 470.387L747.678 470.425L755.728 466.4ZM720.928 426.2L725.826 418.649L725.826 418.649L720.928 426.2ZM618.928 426.2L614.122 418.591L614.076 418.62L614.03 418.649L618.928 426.2ZM584.128 466.4L592.215 470.35L584.128 466.4ZM584.128 582.8L592.215 578.85L592.215 578.85L584.128 582.8ZM618.928 623L614.03 630.551L614.076 630.58L614.122 630.609L618.928 623ZM670.528 383.6C695.83 383.6 717.966 389.622 737.211 401.465L746.645 386.135C724.29 372.378 698.826 365.6 670.528 365.6V383.6ZM737.276 401.505C756.987 413.406 772.243 429.928 783.107 451.281L799.15 443.119C786.813 418.872 769.269 399.794 746.58 386.095L737.276 401.505ZM783.195 451.45C794.406 472.377 800.128 496.483 800.128 524H818.128C818.128 493.917 811.85 466.823 799.061 442.95L783.195 451.45ZM800.128 524C800.128 551.936 794.397 576.464 783.164 597.808L799.092 606.192C811.859 581.936 818.128 554.464 818.128 524H800.128ZM783.164 597.808C771.895 619.219 756.415 635.778 736.676 647.695L745.98 663.105C768.642 649.422 786.361 630.381 799.092 606.192L783.164 597.808ZM736.676 647.695C716.995 659.579 694.628 665.6 669.328 665.6V683.6C697.628 683.6 723.261 676.821 745.98 663.105L736.676 647.695ZM669.328 665.6C650.701 665.6 633.745 661.516 618.304 653.428L609.952 669.372C628.111 678.884 647.955 683.6 669.328 683.6V665.6ZM618.451 653.506C602.858 644.967 589.658 633.273 578.815 618.317L564.242 628.883C576.598 645.927 591.799 659.433 609.805 669.294L618.451 653.506ZM562.528 623.6V665H580.528V623.6H562.528ZM571.528 656H530.728V674H571.528V656ZM539.728 665V229.4H521.728V665H539.728ZM530.728 238.4H571.528V220.4H530.728V238.4ZM562.528 229.4V426.2H580.528V229.4H562.528ZM578.876 431.397C589.703 416.089 602.841 404.472 618.304 396.372L609.952 380.428C591.815 389.928 576.553 403.51 564.18 421.003L578.876 431.397ZM618.373 396.336C634.207 387.867 651.539 383.6 670.528 383.6V365.6C648.717 365.6 628.45 370.533 609.883 380.464L618.373 396.336ZM670.528 646.4C690.947 646.4 709.47 641.16 725.826 630.551L716.03 615.449C702.786 624.04 687.71 628.4 670.528 628.4V646.4ZM725.826 630.551C742.112 619.987 754.762 605.288 763.815 586.75L747.641 578.85C739.895 594.712 729.344 606.813 716.03 615.449L725.826 630.551ZM763.815 586.75C772.9 568.148 777.328 547.164 777.328 524H759.328C759.328 544.836 755.357 563.052 747.641 578.85L763.815 586.75ZM777.328 524C777.328 501.213 772.89 480.6 763.778 462.375L747.678 470.425C755.366 485.8 759.328 503.587 759.328 524H777.328ZM763.815 462.45C754.762 443.912 742.112 429.213 725.826 418.649L716.03 433.751C729.344 442.387 739.895 454.488 747.641 470.35L763.815 462.45ZM725.826 418.649C709.47 408.04 690.947 402.8 670.528 402.8V420.8C687.71 420.8 702.786 425.16 716.03 433.751L725.826 418.649ZM670.528 402.8C649.748 402.8 630.859 408.02 614.122 418.591L623.734 433.809C637.397 425.18 652.909 420.8 670.528 420.8V402.8ZM614.03 418.649C597.744 429.213 585.095 443.912 576.041 462.45L592.215 470.35C599.962 454.488 610.512 442.387 623.826 433.751L614.03 418.649ZM576.041 462.45C566.967 481.03 562.528 501.808 562.528 524.6H580.528C580.528 504.192 584.489 486.17 592.215 470.35L576.041 462.45ZM562.528 524.6C562.528 547.392 566.967 568.17 576.041 586.75L592.215 578.85C584.489 563.03 580.528 545.008 580.528 524.6H562.528ZM576.041 586.75C585.095 605.288 597.744 619.987 614.03 630.551L623.826 615.449C610.512 606.813 599.962 594.712 592.215 578.85L576.041 586.75ZM614.122 630.609C630.859 641.18 649.748 646.4 670.528 646.4V628.4C652.909 628.4 637.397 624.02 623.734 615.391L614.122 630.609Z" fill="black"/>
<path d="M874.6 694.8C865.8 694.8 858.2 691.6 851.8 685.2C845.8 678.8 842.8 671 842.8 661.8C842.8 653 845.8 645.4 851.8 639C858.2 632.6 865.8 629.4 874.6 629.4C883.8 629.4 891.6 632.6 898 639C904.4 645.4 907.6 653.2 907.6 662.4C907.6 671.2 904.4 678.8 898 685.2C891.6 691.6 883.8 694.8 874.6 694.8Z" fill="#0059C1"/>
</svg>
